<mxGraphModel dx="852" dy="494" grid="1" gridSize="10" guides="1" tooltips="1" connect="1" arrows="1" fold="1" page="1" pageScale="1" pageWidth="827" pageHeight="1169" math="0" shadow="0">
  <root>
    <mxCell id="0" />
    <mxCell id="1" parent="0" />
    <mxCell id="6" value="" style="edgeStyle=orthogonalEdgeStyle;rounded=0;orthogonalLoop=1;jettySize=auto;html=1;" parent="1" source="2" target="3" edge="1">
      <mxGeometry relative="1" as="geometry" />
    </mxCell>
    <mxCell id="2" value="Запуск" style="ellipse;whiteSpace=wrap;html=1;" parent="1" vertex="1">
      <mxGeometry x="330" y="10" width="120" height="50" as="geometry" />
    </mxCell>
    <mxCell id="9" value="" style="edgeStyle=orthogonalEdgeStyle;rounded=0;orthogonalLoop=1;jettySize=auto;html=1;" parent="1" source="3" target="8" edge="1">
      <mxGeometry relative="1" as="geometry" />
    </mxCell>
    <mxCell id="3" value="&lt;div style=&quot;font-family: consolas, &amp;quot;courier new&amp;quot;, monospace; font-size: 14px; line-height: 19px;&quot;&gt;&lt;span style=&quot;&quot;&gt;int&lt;/span&gt; &lt;span style=&quot;&quot;&gt;n,&lt;/span&gt;&lt;span style=&quot;font-family: &amp;quot;consolas&amp;quot; , &amp;quot;courier new&amp;quot; , monospace&quot;&gt;&amp;nbsp;&lt;/span&gt;&lt;span style=&quot;font-family: consolas, &amp;quot;courier new&amp;quot;, monospace;&quot;&gt;space&lt;/span&gt;&lt;span style=&quot;font-family: &amp;quot;consolas&amp;quot; , &amp;quot;courier new&amp;quot; , monospace&quot;&gt; = &lt;/span&gt;&lt;span style=&quot;font-family: consolas, &amp;quot;courier new&amp;quot;, monospace;&quot;&gt;n&lt;/span&gt;&lt;span style=&quot;font-family: &amp;quot;consolas&amp;quot; , &amp;quot;courier new&amp;quot; , monospace&quot;&gt; - &lt;/span&gt;&lt;span style=&quot;font-family: consolas, &amp;quot;courier new&amp;quot;, monospace;&quot;&gt;1,&lt;/span&gt;&lt;/div&gt;&lt;div style=&quot;font-family: consolas, &amp;quot;courier new&amp;quot;, monospace; font-size: 14px; line-height: 19px;&quot;&gt;&lt;div&gt;&amp;nbsp;&amp;nbsp;&lt;span style=&quot;&quot;&gt;star&lt;/span&gt; = &lt;span style=&quot;&quot;&gt;1;&lt;/span&gt;&lt;/div&gt;&lt;/div&gt;" style="rounded=0;whiteSpace=wrap;html=1;labelBackgroundColor=#ffffff;" parent="1" vertex="1">
      <mxGeometry x="285" y="120" width="210" height="60" as="geometry" />
    </mxCell>
    <mxCell id="4" value="" style="strokeWidth=2;html=1;shape=mxgraph.flowchart.annotation_2;align=left;labelPosition=right;pointerEvents=1;" parent="1" vertex="1">
      <mxGeometry x="480" y="40" width="60" height="100" as="geometry" />
    </mxCell>
    <mxCell id="5" value="&lt;br&gt;&lt;br&gt;&lt;div style=&quot;font-family: consolas, &amp;quot;courier new&amp;quot;, monospace; font-weight: normal; font-size: 14px; line-height: 19px;&quot;&gt;&lt;div&gt;&lt;span style=&quot;&quot;&gt;#include&lt;/span&gt;&lt;span style=&quot;&quot;&gt; &lt;/span&gt;&lt;span style=&quot;&quot;&gt;&amp;lt;iostream&amp;gt;&lt;/span&gt;&lt;/div&gt;&lt;div&gt;&lt;span style=&quot;&quot;&gt;using&lt;/span&gt;&lt;span style=&quot;&quot;&gt; &lt;/span&gt;&lt;span style=&quot;&quot;&gt;namespace&lt;/span&gt;&lt;span style=&quot;&quot;&gt; &lt;/span&gt;&lt;span style=&quot;&quot;&gt;std&lt;/span&gt;&lt;span style=&quot;&quot;&gt;;&lt;/span&gt;&lt;/div&gt;&lt;div&gt;&lt;span style=&quot;&quot;&gt;int&lt;/span&gt;&lt;span style=&quot;&quot;&gt; &lt;/span&gt;&lt;span style=&quot;&quot;&gt;main&lt;/span&gt;&lt;span style=&quot;&quot;&gt;() &lt;/span&gt;&lt;/div&gt;&lt;div&gt;&lt;span style=&quot;&quot;&gt;{&lt;/span&gt;&lt;/div&gt;&lt;/div&gt;&lt;br&gt;" style="text;whiteSpace=wrap;html=1;labelBackgroundColor=#ffffff;" parent="1" vertex="1">
      <mxGeometry x="520" y="20" width="180" height="130" as="geometry" />
    </mxCell>
    <mxCell id="7" value="" style="endArrow=none;dashed=1;html=1;entryX=0;entryY=0.5;entryDx=0;entryDy=0;entryPerimeter=0;" parent="1" target="4" edge="1">
      <mxGeometry width="50" height="50" relative="1" as="geometry">
        <mxPoint x="390" y="90" as="sourcePoint" />
        <mxPoint x="440" y="380" as="targetPoint" />
      </mxGeometry>
    </mxCell>
    <mxCell id="11" value="" style="edgeStyle=orthogonalEdgeStyle;rounded=0;orthogonalLoop=1;jettySize=auto;html=1;" parent="1" source="8" target="10" edge="1">
      <mxGeometry relative="1" as="geometry" />
    </mxCell>
    <mxCell id="8" value="&lt;div style=&quot;font-family: consolas, &amp;quot;courier new&amp;quot;, monospace; font-size: 14px; line-height: 19px;&quot;&gt;&lt;span style=&quot;&quot;&gt;cout&lt;/span&gt; &lt;span style=&quot;&quot;&gt;&amp;lt;&amp;lt;&lt;/span&gt; &lt;span style=&quot;&quot;&gt;&quot;Введите значение N: &quot;&lt;/span&gt; &lt;span style=&quot;&quot;&gt;&amp;lt;&amp;lt;&lt;/span&gt; &lt;span style=&quot;&quot;&gt;n&lt;/span&gt; &lt;span style=&quot;&quot;&gt;&amp;lt;&amp;lt;&lt;/span&gt; &lt;span style=&quot;&quot;&gt;endl&lt;/span&gt;;&lt;/div&gt;" style="shape=parallelogram;perimeter=parallelogramPerimeter;whiteSpace=wrap;html=1;fixedSize=1;labelBackgroundColor=#ffffff;" parent="1" vertex="1">
      <mxGeometry x="200" y="210" width="380" height="60" as="geometry" />
    </mxCell>
    <mxCell id="15" value="" style="edgeStyle=orthogonalEdgeStyle;rounded=0;orthogonalLoop=1;jettySize=auto;html=1;" parent="1" source="10" target="13" edge="1">
      <mxGeometry relative="1" as="geometry" />
    </mxCell>
    <mxCell id="10" value="&lt;div style=&quot;font-family: consolas, &amp;quot;courier new&amp;quot;, monospace; font-size: 14px; line-height: 19px;&quot;&gt;&lt;span style=&quot;&quot;&gt;cin&lt;/span&gt; &lt;span style=&quot;&quot;&gt;&amp;gt;&amp;gt;&lt;/span&gt; &lt;span style=&quot;&quot;&gt;n&lt;/span&gt;;&lt;/div&gt;" style="shape=parallelogram;perimeter=parallelogramPerimeter;whiteSpace=wrap;html=1;fixedSize=1;labelBackgroundColor=#ffffff;" parent="1" vertex="1">
      <mxGeometry x="330" y="310" width="120" height="60" as="geometry" />
    </mxCell>
    <mxCell id="17" value="" style="edgeStyle=orthogonalEdgeStyle;rounded=0;orthogonalLoop=1;jettySize=auto;html=1;" parent="1" source="13" target="16" edge="1">
      <mxGeometry relative="1" as="geometry" />
    </mxCell>
    <mxCell id="37" style="edgeStyle=orthogonalEdgeStyle;rounded=0;orthogonalLoop=1;jettySize=auto;html=1;entryX=0.5;entryY=0;entryDx=0;entryDy=0;" parent="1" source="13" target="34" edge="1">
      <mxGeometry relative="1" as="geometry">
        <Array as="points">
          <mxPoint x="170" y="440" />
          <mxPoint x="170" y="1190" />
          <mxPoint x="390" y="1190" />
        </Array>
      </mxGeometry>
    </mxCell>
    <mxCell id="13" value="&lt;div style=&quot;font-family: consolas, &amp;quot;courier new&amp;quot;, monospace; font-size: 14px; line-height: 19px;&quot;&gt;&lt;span style=&quot;&quot;&gt;for&lt;/span&gt; (&lt;span style=&quot;&quot;&gt;int&lt;/span&gt; &lt;span style=&quot;&quot;&gt;i&lt;/span&gt; = &lt;span style=&quot;&quot;&gt;0&lt;/span&gt;; &lt;span style=&quot;&quot;&gt;i&lt;/span&gt; &amp;lt; &lt;span style=&quot;&quot;&gt;n&lt;/span&gt;; &lt;span style=&quot;&quot;&gt;i&lt;/span&gt;++)&lt;/div&gt;" style="shape=hexagon;perimeter=hexagonPerimeter2;whiteSpace=wrap;html=1;fixedSize=1;labelBackgroundColor=#ffffff;" parent="1" vertex="1">
      <mxGeometry x="275" y="400" width="230" height="80" as="geometry" />
    </mxCell>
    <mxCell id="20" value="" style="edgeStyle=orthogonalEdgeStyle;rounded=0;orthogonalLoop=1;jettySize=auto;html=1;" parent="1" source="16" target="19" edge="1">
      <mxGeometry relative="1" as="geometry" />
    </mxCell>
    <mxCell id="23" style="edgeStyle=orthogonalEdgeStyle;rounded=0;orthogonalLoop=1;jettySize=auto;html=1;entryX=1;entryY=0.5;entryDx=0;entryDy=0;" parent="1" source="16" target="22" edge="1">
      <mxGeometry relative="1" as="geometry">
        <Array as="points">
          <mxPoint x="550" y="550" />
          <mxPoint x="550" y="750" />
        </Array>
      </mxGeometry>
    </mxCell>
    <mxCell id="16" value="&lt;div style=&quot;font-family: consolas, &amp;quot;courier new&amp;quot;, monospace; font-size: 14px; line-height: 19px;&quot;&gt;&lt;span style=&quot;&quot;&gt;for&lt;/span&gt; (&lt;span style=&quot;&quot;&gt;int&lt;/span&gt; &lt;span style=&quot;&quot;&gt;j&lt;/span&gt; = &lt;span style=&quot;&quot;&gt;1&lt;/span&gt;; &lt;span style=&quot;&quot;&gt;j&lt;/span&gt; &amp;lt;= &lt;span style=&quot;&quot;&gt;space&lt;/span&gt;; &lt;span style=&quot;&quot;&gt;j&lt;/span&gt;++) &lt;/div&gt;" style="shape=hexagon;perimeter=hexagonPerimeter2;whiteSpace=wrap;html=1;fixedSize=1;labelBackgroundColor=#ffffff;" parent="1" vertex="1">
      <mxGeometry x="255" y="515" width="270" height="70" as="geometry" />
    </mxCell>
    <mxCell id="21" style="edgeStyle=orthogonalEdgeStyle;rounded=0;orthogonalLoop=1;jettySize=auto;html=1;entryX=0;entryY=0.5;entryDx=0;entryDy=0;" parent="1" source="19" target="16" edge="1">
      <mxGeometry relative="1" as="geometry">
        <Array as="points">
          <mxPoint x="220" y="650" />
          <mxPoint x="220" y="550" />
        </Array>
      </mxGeometry>
    </mxCell>
    <mxCell id="19" value="&lt;div style=&quot;font-family: consolas, &amp;quot;courier new&amp;quot;, monospace; font-size: 14px; line-height: 19px;&quot;&gt;&lt;span style=&quot;&quot;&gt;cout&lt;/span&gt; &lt;span style=&quot;&quot;&gt;&amp;lt;&amp;lt;&lt;/span&gt; &lt;span style=&quot;&quot;&gt;&quot; &amp;nbsp;&quot;&lt;/span&gt;;&lt;/div&gt;" style="shape=parallelogram;perimeter=parallelogramPerimeter;whiteSpace=wrap;html=1;fixedSize=1;labelBackgroundColor=#ffffff;" parent="1" vertex="1">
      <mxGeometry x="325" y="620" width="130" height="60" as="geometry" />
    </mxCell>
    <mxCell id="25" value="" style="edgeStyle=orthogonalEdgeStyle;rounded=0;orthogonalLoop=1;jettySize=auto;html=1;" parent="1" source="22" target="24" edge="1">
      <mxGeometry relative="1" as="geometry" />
    </mxCell>
    <mxCell id="22" value="&lt;div style=&quot;font-family: consolas, &amp;quot;courier new&amp;quot;, monospace; font-size: 14px; line-height: 19px;&quot;&gt;&lt;span style=&quot;&quot;&gt;space&lt;/span&gt;--;&lt;/div&gt;" style="rounded=0;whiteSpace=wrap;html=1;labelBackgroundColor=#ffffff;" parent="1" vertex="1">
      <mxGeometry x="330" y="720" width="120" height="60" as="geometry" />
    </mxCell>
    <mxCell id="27" value="" style="edgeStyle=orthogonalEdgeStyle;rounded=0;orthogonalLoop=1;jettySize=auto;html=1;" parent="1" source="24" target="26" edge="1">
      <mxGeometry relative="1" as="geometry" />
    </mxCell>
    <mxCell id="35" style="edgeStyle=orthogonalEdgeStyle;rounded=0;orthogonalLoop=1;jettySize=auto;html=1;entryX=1;entryY=0.5;entryDx=0;entryDy=0;" parent="1" source="24" target="29" edge="1">
      <mxGeometry relative="1" as="geometry">
        <Array as="points">
          <mxPoint x="570" y="850" />
          <mxPoint x="570" y="1050" />
        </Array>
      </mxGeometry>
    </mxCell>
    <mxCell id="24" value="&lt;div style=&quot;font-family: consolas, &amp;quot;courier new&amp;quot;, monospace; font-size: 14px; line-height: 19px;&quot;&gt;&lt;span style=&quot;&quot;&gt;for&lt;/span&gt; (&lt;span style=&quot;&quot;&gt;int&lt;/span&gt; &lt;span style=&quot;&quot;&gt;j&lt;/span&gt; = &lt;span style=&quot;&quot;&gt;1&lt;/span&gt;; &lt;span style=&quot;&quot;&gt;j&lt;/span&gt; &amp;lt;= &lt;span style=&quot;&quot;&gt;star&lt;/span&gt;; &lt;span style=&quot;&quot;&gt;j&lt;/span&gt;++)&lt;/div&gt;" style="shape=hexagon;perimeter=hexagonPerimeter2;whiteSpace=wrap;html=1;fixedSize=1;labelBackgroundColor=#ffffff;" parent="1" vertex="1">
      <mxGeometry x="260" y="810" width="260" height="80" as="geometry" />
    </mxCell>
    <mxCell id="28" style="edgeStyle=orthogonalEdgeStyle;rounded=0;orthogonalLoop=1;jettySize=auto;html=1;entryX=0;entryY=0.5;entryDx=0;entryDy=0;" parent="1" source="26" target="24" edge="1">
      <mxGeometry relative="1" as="geometry">
        <Array as="points">
          <mxPoint x="220" y="960" />
          <mxPoint x="220" y="850" />
        </Array>
      </mxGeometry>
    </mxCell>
    <mxCell id="26" value="&lt;div style=&quot;font-family: consolas, &amp;quot;courier new&amp;quot;, monospace; font-size: 14px; line-height: 19px;&quot;&gt;&lt;span style=&quot;&quot;&gt;cout&lt;/span&gt; &lt;span style=&quot;&quot;&gt;&amp;lt;&amp;lt;&lt;/span&gt; &lt;span style=&quot;&quot;&gt;&quot;* &quot;&lt;/span&gt;;&lt;/div&gt;" style="shape=parallelogram;perimeter=parallelogramPerimeter;whiteSpace=wrap;html=1;fixedSize=1;labelBackgroundColor=#ffffff;" parent="1" vertex="1">
      <mxGeometry x="317.5" y="930" width="145" height="60" as="geometry" />
    </mxCell>
    <mxCell id="33" value="" style="edgeStyle=orthogonalEdgeStyle;rounded=0;orthogonalLoop=1;jettySize=auto;html=1;" parent="1" source="29" target="31" edge="1">
      <mxGeometry relative="1" as="geometry" />
    </mxCell>
    <mxCell id="29" value="&lt;div style=&quot;font-family: consolas, &amp;quot;courier new&amp;quot;, monospace; font-size: 14px; line-height: 19px;&quot;&gt;&lt;span style=&quot;&quot;&gt;star&lt;/span&gt; += &lt;span style=&quot;&quot;&gt;1&lt;/span&gt;;&lt;/div&gt;" style="rounded=0;whiteSpace=wrap;html=1;labelBackgroundColor=#ffffff;" parent="1" vertex="1">
      <mxGeometry x="330" y="1020" width="120" height="60" as="geometry" />
    </mxCell>
    <mxCell id="36" style="edgeStyle=orthogonalEdgeStyle;rounded=0;orthogonalLoop=1;jettySize=auto;html=1;entryX=1;entryY=0.5;entryDx=0;entryDy=0;" parent="1" source="31" target="13" edge="1">
      <mxGeometry relative="1" as="geometry">
        <mxPoint x="790" y="320" as="targetPoint" />
        <Array as="points">
          <mxPoint x="670" y="1139" />
          <mxPoint x="670" y="440" />
        </Array>
      </mxGeometry>
    </mxCell>
    <mxCell id="31" value="&lt;div style=&quot;font-family: consolas, &amp;quot;courier new&amp;quot;, monospace; font-size: 14px; line-height: 19px;&quot;&gt;&lt;span style=&quot;&quot;&gt;cout&lt;/span&gt; &lt;span style=&quot;&quot;&gt;&amp;lt;&amp;lt;&lt;/span&gt; &lt;span style=&quot;&quot;&gt;endl&lt;/span&gt;;&lt;/div&gt;" style="shape=parallelogram;perimeter=parallelogramPerimeter;whiteSpace=wrap;html=1;fixedSize=1;labelBackgroundColor=#ffffff;" parent="1" vertex="1">
      <mxGeometry x="322.5" y="1109" width="135" height="60" as="geometry" />
    </mxCell>
    <mxCell id="34" value="Конец" style="ellipse;whiteSpace=wrap;html=1;" parent="1" vertex="1">
      <mxGeometry x="330" y="1230" width="120" height="50" as="geometry" />
    </mxCell>
    <mxCell id="38" value="" style="strokeWidth=2;html=1;shape=mxgraph.flowchart.annotation_2;align=left;labelPosition=right;pointerEvents=1;" parent="1" vertex="1">
      <mxGeometry x="440" y="1190" width="50" height="30" as="geometry" />
    </mxCell>
    <mxCell id="39" value="return 0;" style="text;html=1;align=center;verticalAlign=middle;resizable=0;points=[];autosize=1;strokeColor=none;" parent="1" vertex="1">
      <mxGeometry x="462.5" y="1195" width="60" height="20" as="geometry" />
    </mxCell>
    <mxCell id="41" value="" style="endArrow=none;dashed=1;html=1;entryX=0;entryY=0.5;entryDx=0;entryDy=0;entryPerimeter=0;" parent="1" target="38" edge="1">
      <mxGeometry width="50" height="50" relative="1" as="geometry">
        <mxPoint x="390" y="1205" as="sourcePoint" />
        <mxPoint x="440" y="1130" as="targetPoint" />
      </mxGeometry>
    </mxCell>
  </root>
</mxGraphModel>
